<svg width="427" height="117" viewBox="0 0 427 117" fill="none" xmlns="http://www.w3.org/2000/svg">
<g filter="url(#filter0_i_4501_94)">
<rect width="426.45" height="116.11" rx="25" fill="#D6FF6B"/>
</g>
<path d="M207.017 57.7602C207.017 62.9812 207.001 68.2022 207.032 73.4232C207.032 74.1868 206.815 74.405 206.071 74.3738C204.645 74.3271 203.235 74.3427 201.809 74.3738C201.267 74.3894 201.066 74.1868 201.097 73.6569C201.128 72.7998 201.112 71.9426 201.097 71.0854C201.097 71.067 201.095 71.0486 201.093 71.0301C201.061 70.75 200.59 70.6095 200.446 70.8516V70.8516C198.338 73.9686 195.208 74.9972 191.721 74.9817C185.026 74.9349 180.47 70.7114 179.307 64.5553C178.687 61.2513 178.904 57.9784 180.346 54.8926C182.36 50.5755 185.692 48.0975 190.481 47.6611C193.534 47.3962 196.323 48.0507 198.772 49.9521C199.221 50.295 199.593 50.747 200.012 51.121V51.121C200.251 51.3378 200.723 51.192 200.766 50.8718C200.769 50.8457 200.771 50.8197 200.771 50.7937C200.787 47.9416 200.787 45.074 200.787 42.2219C200.787 41.1466 200.787 41.1466 201.825 41.1466C203.266 41.1466 204.723 41.1777 206.164 41.131C206.862 41.0998 207.032 41.3492 207.032 42.0193C207.001 47.2715 207.017 52.5081 207.017 57.7602ZM200.957 61.298C200.957 56.6537 197.641 53.2094 193.193 53.1626C188.947 53.1315 185.212 56.2485 185.243 61.2824C185.274 66.3631 189.04 69.3399 193.115 69.3399C197.594 69.3399 200.942 65.9112 200.957 61.298Z" fill="black"/>
<path d="M302.528 57.8388C302.528 62.9818 302.528 68.1249 302.528 73.2679C302.528 74.3589 302.528 74.3589 301.412 74.3589C300.125 74.3589 298.824 74.3277 297.537 74.3745C296.917 74.3901 296.639 74.203 296.67 73.5485C296.716 72.6913 296.685 71.8341 296.67 70.9769C296.67 70.9542 296.667 70.9314 296.663 70.9086C296.61 70.6404 296.182 70.5241 296.019 70.7432V70.7432C294.205 73.5329 291.493 74.6394 288.347 74.8888C284.411 75.2005 280.94 74.1095 278.15 71.2263C276.182 69.2003 275.144 66.7066 274.741 63.9481C274.291 60.9246 274.493 57.9323 275.779 55.1114C277.794 50.6697 281.141 48.067 286.069 47.6462C288.781 47.4124 291.307 47.8955 293.586 49.4229C294.283 49.8904 294.872 50.545 295.523 51.0905V51.0905C295.81 51.3311 296.344 51.1501 296.359 50.7758C296.359 50.7664 296.36 50.757 296.36 50.7476C296.391 49.6255 296.375 48.5189 296.375 47.3968C296.375 45.5734 296.391 43.7655 296.36 41.9421C296.344 41.3342 296.546 41.116 297.165 41.1316C298.669 41.1628 300.156 41.1784 301.66 41.1316C302.342 41.116 302.543 41.3498 302.543 42.02C302.512 47.3033 302.528 52.571 302.528 57.8388ZM288.626 69.3405C293.121 69.3561 296.561 65.8495 296.561 61.2519C296.561 56.6855 293.136 53.1789 288.704 53.1633C284.21 53.1633 280.816 56.6076 280.8 61.174C280.769 65.8495 284.117 69.3405 288.626 69.3405Z" fill="black"/>
<path d="M123.923 57.7449C123.923 52.5239 123.938 47.3029 123.907 42.082C123.907 41.3183 124.14 41.1001 124.868 41.1313C126.309 41.178 127.766 41.178 129.207 41.1313C129.951 41.1001 130.184 41.3183 130.168 42.082C130.137 47.2562 130.153 52.4148 130.153 57.5891C130.153 57.7917 130.137 58.0098 130.153 58.2125V58.2125C130.198 58.5753 130.685 58.799 130.943 58.5397V58.5397C133.392 55.9059 135.871 53.2876 138.273 50.607C140.381 48.2692 140.35 48.238 143.434 48.238C144.86 48.238 146.27 48.238 147.696 48.238C147.711 48.238 147.726 48.2386 147.74 48.2398C147.991 48.2588 148.105 48.621 147.928 48.7991V48.7991C144.627 52.3057 141.342 55.8279 138.025 59.319C137.529 59.8333 137.483 60.1606 137.963 60.7372C141.636 65.101 145.263 69.496 148.904 73.8754V73.8754C149.044 74.0395 148.918 74.3274 148.703 74.3274V74.3274C146.332 74.3274 143.945 74.3585 141.574 74.2962C141.202 74.2806 140.722 73.9533 140.474 73.626C137.421 69.7298 134.399 65.8179 131.361 61.9061V61.9061C131 61.4469 130.168 61.7425 130.168 62.3269V62.3269C130.153 65.9426 130.153 69.5428 130.153 73.1585C130.153 74.3274 130.153 74.3274 128.959 74.3274C127.565 74.3274 126.17 74.2962 124.775 74.343C124.093 74.4053 123.907 74.1715 123.907 73.4858C123.938 68.2336 123.923 62.9971 123.923 57.7449Z" fill="black"/>
<path d="M175.963 61.3453C176.009 68.6547 170.694 74.3432 163.333 74.8731C160.125 75.1069 157.103 74.6237 154.313 73.0029C150.361 70.7119 148.223 67.1741 147.82 62.6388C147.463 58.6647 148.455 55.0645 151.152 52.041C153.352 49.5786 156.173 48.2383 159.365 47.7551C162.852 47.2253 166.246 47.6461 169.33 49.4383C173.514 51.8696 175.715 55.5788 175.932 60.4414C175.932 60.7219 175.947 60.9868 175.963 61.3453ZM154.019 61.2206C154.019 65.8649 157.335 69.3248 161.798 69.3404C166.308 69.356 169.749 65.8961 169.78 61.2985C169.811 56.7321 166.355 53.1943 161.86 53.1787C157.382 53.1787 154.019 56.623 154.019 61.2206Z" fill="black"/>
<path d="M244.635 65.2491C244.593 65.2606 244.571 65.2917 244.571 65.3354C244.571 68.0364 244.556 70.7374 244.587 73.4383C244.602 74.1397 244.401 74.4046 243.672 74.3734C242.432 74.3111 241.193 74.3111 239.953 74.3734C239.209 74.4046 239.008 74.1241 239.054 73.4228C239.1 72.7214 239.069 72.0201 239.054 71.3188C239.054 71.3122 239.054 71.3057 239.054 71.2992C239.04 71.0002 238.555 70.8015 238.372 71.0382V71.0382C236.512 73.7656 233.785 74.8722 230.654 74.9345C227.199 74.9968 224.053 74.1397 221.93 71.0227C220.225 68.5135 220.364 63.3393 223.882 60.9236C225.881 59.5521 228.113 58.8508 230.469 58.617C232.933 58.3676 235.412 58.3365 237.876 58.2274C239.023 58.1806 239.147 58.0403 239.054 56.8715C238.775 53.7701 236.497 52.4765 233.754 52.2271C230.995 51.9934 228.485 52.7259 226.3 54.4558C226.129 54.5805 225.68 54.5805 225.54 54.4558C224.673 53.6454 223.851 52.7726 222.999 51.9466C222.611 51.5726 222.906 51.37 223.154 51.1362C224.735 49.7024 226.579 48.7361 228.64 48.2062C231.941 47.3646 235.257 47.2088 238.558 48.2685C242.107 49.4218 244.075 51.9934 244.401 55.6558C244.678 58.8185 244.618 61.9967 244.694 65.1749C244.695 65.2055 244.665 65.241 244.635 65.2491V65.2491ZM236.077 62.5132C236.061 62.5132 236.048 62.5056 236.048 62.489V62.489C236.048 62.4716 236.033 62.452 236.015 62.4533C235.003 62.5295 233.976 62.5613 232.964 62.6847C231.429 62.8873 229.911 63.199 228.578 64.0717C227.849 64.5393 227.354 65.1627 227.183 66.0355C226.827 67.7186 227.772 69.3707 229.632 69.9005C230.716 70.2122 231.925 70.2902 233.057 70.2278C235.273 70.1031 237.086 69.1992 238.078 67.0329C238.667 65.7393 238.667 64.3679 238.589 62.9808C238.574 62.8094 238.264 62.5288 238.062 62.5132C237.406 62.4825 236.734 62.5123 236.077 62.5132Z" fill="black"/>
<path d="M247.851 61.3131C247.851 57.3078 247.851 53.318 247.851 49.3127C247.851 48.2841 247.867 48.2529 248.89 48.2529C250.207 48.2529 251.524 48.2841 252.842 48.2373C253.539 48.2217 253.756 48.4867 253.725 49.1568C253.678 49.9361 253.694 50.7153 253.725 51.4946C253.726 51.5181 253.728 51.5417 253.731 51.5653C253.775 51.9128 254.311 52.039 254.5 51.7439V51.7439C255.724 49.7802 257.305 48.2685 259.645 47.8165C263.581 47.0373 267.936 47.9568 270.121 51.7907C271.144 53.5674 271.454 55.5467 271.469 57.5571C271.516 62.8872 271.469 68.2017 271.5 73.5318C271.5 74.1708 271.314 74.389 270.664 74.3734C269.222 74.3266 267.766 74.3578 266.324 74.3578C265.255 74.3578 265.255 74.3578 265.255 73.3136C265.255 68.981 265.286 64.6327 265.224 60.3001C265.208 58.991 265.007 57.6507 264.635 56.4039C263.907 54.0038 261.861 52.8349 259.381 53.2245C256.174 53.7232 254.19 55.9675 254.143 59.2559C254.081 63.947 254.05 68.6537 254.05 73.3448C254.05 74.1084 253.864 74.4046 253.059 74.3734C251.617 74.311 250.161 74.3266 248.719 74.3734C248.022 74.389 247.836 74.124 247.836 73.4695C247.867 69.4173 247.851 65.3652 247.851 61.3131Z" fill="black"/>
<path d="M217.88 57.7449C217.88 62.9659 217.865 68.1713 217.896 73.3923C217.896 74.1248 217.725 74.4053 216.95 74.3741C215.432 74.3118 213.913 74.343 212.379 74.3741C211.79 74.3897 211.619 74.1715 211.619 73.6105C211.635 63.0438 211.635 52.4772 211.619 41.9261C211.619 41.2716 211.867 41.1313 212.441 41.1469C213.959 41.178 215.493 41.1936 217.012 41.1469C217.694 41.1313 217.896 41.3495 217.896 42.0352C217.865 47.2562 217.88 52.5084 217.88 57.7449Z" fill="black"/>
<defs>
<filter id="filter0_i_4501_94" x="0" y="-14.1235" width="436.275" height="130.234" filterUnits="userSpaceOnUse" color-interpolation-filters="sRGB">
<feFlood flood-opacity="0" result="BackgroundImageFix"/>
<feBlend mode="normal" in="SourceGraphic" in2="BackgroundImageFix" result="shape"/>
<feColorMatrix in="SourceAlpha" type="matrix" values="0 0 0 0 0 0 0 0 0 0 0 0 0 0 0 0 0 0 127 0" result="hardAlpha"/>
<feOffset dx="9.82506" dy="-14.1235"/>
<feGaussianBlur stdDeviation="7.06176"/>
<feComposite in2="hardAlpha" operator="arithmetic" k2="-1" k3="1"/>
<feColorMatrix type="matrix" values="0 0 0 0 0.756354 0 0 0 0 0.883333 0 0 0 0 0.629375 0 0 0 0.8 0"/>
<feBlend mode="normal" in2="shape" result="effect1_innerShadow_4501_94"/>
</filter>
</defs>
</svg>
